<svg xmlns="http://www.w3.org/2000/svg" width="12.01" height="14.75" viewBox="0 0 12.01 14.75">
  <g id="Apple_logo_grey" transform="translate(-0.149 -0.349)">
    <g id="g186" transform="translate(0.149 3.904)">
      <path id="path188" d="M2495.563-4601.447a3.333,3.333,0,0,1,1.594-2.806,3.448,3.448,0,0,0-2.7-1.463c-1.148-.116-2.241.676-2.823.676s-1.482-.659-2.434-.64a3.609,3.609,0,0,0-3.052,1.849c-1.3,2.256-.332,5.6.934,7.432.62.895,1.358,1.9,2.329,1.866.935-.037,1.288-.6,2.417-.6s1.447.6,2.435.586c1-.019,1.642-.915,2.258-1.812a8.1,8.1,0,0,0,1.021-2.1,3.257,3.257,0,0,1-1.98-2.984" transform="translate(-2485.533 4605.728)" fill="#fff"/>
    </g>
    <path id="path190" d="M354.472,2.7a3.244,3.244,0,0,0,.767-2.356,3.3,3.3,0,0,0-2.172,1.118,3.084,3.084,0,0,0-.782,2.281A2.737,2.737,0,0,0,354.472,2.7" transform="translate(-346.149)" fill="#fff"/>
  </g>
</svg>
