<svg xmlns="http://www.w3.org/2000/svg" width="17.897" height="19.886" viewBox="0 0 17.897 19.886">
  <g id="brain" transform="translate(-25.85 0.15)">
    <g id="Group_1506" data-name="Group 1506" transform="translate(36.329 3.175)">
      <g id="Group_1505" data-name="Group 1505">
        <path id="Path_3528" data-name="Path 3528" d="M296.383,83a.383.383,0,1,0,.383.383A.383.383,0,0,0,296.383,83Z" transform="translate(-296 -83)" fill="#a3a6b4" stroke="#a3a6b4" stroke-width="0.3"/>
      </g>
    </g>
    <g id="Group_1508" data-name="Group 1508" transform="translate(32.503 3.175)">
      <g id="Group_1507" data-name="Group 1507">
        <path id="Path_3529" data-name="Path 3529" d="M196.383,83a.383.383,0,1,0,.383.383A.383.383,0,0,0,196.383,83Z" transform="translate(-196 -83)" fill="#a3a6b4" stroke="#a3a6b4" stroke-width="0.3"/>
      </g>
    </g>
    <g id="Group_1510" data-name="Group 1510" transform="translate(26)">
      <g id="Group_1509" data-name="Group 1509">
        <path id="Path_3530" data-name="Path 3530" d="M43.1,11.433a3.059,3.059,0,0,0,.493-1.64,2.657,2.657,0,0,0-.969-2.055,2.586,2.586,0,0,0,.2-1,2.851,2.851,0,0,0-1.546-2.522,2.293,2.293,0,0,0-1.741-2.5A2.756,2.756,0,0,0,37.094,0a2.688,2.688,0,0,0-2.3,1.378A2.688,2.688,0,0,0,32.5,0a2.756,2.756,0,0,0-2.45,1.709,2.292,2.292,0,0,0-1.741,2.5,2.851,2.851,0,0,0-1.546,2.522,2.586,2.586,0,0,0,.2,1A2.657,2.657,0,0,0,26,9.793a3.059,3.059,0,0,0,.493,1.64,2.641,2.641,0,0,0,.307,3.429,2.777,2.777,0,0,0,2.643,3.194h.035a3.016,3.016,0,0,0,5.321-.133,3.016,3.016,0,0,0,5.321.133h.035a2.774,2.774,0,0,0,2.678-2.793,2.449,2.449,0,0,0-.034-.4,2.641,2.641,0,0,0,.307-3.429ZM34.416,5.791a1.52,1.52,0,0,0-.765-.206.383.383,0,1,0,0,.765.766.766,0,0,1,.765.765V14.39a3.053,3.053,0,0,0-2.3-1.039.383.383,0,0,0,0,.765,2.3,2.3,0,0,1,2.3,2.3,2.386,2.386,0,0,1-2.3,2.41,2.3,2.3,0,0,1-2.077-1.334.383.383,0,0,0-.39-.219l-.081.01a2,2,0,0,1-1.983-2.463.382.382,0,0,0-.127-.383,1.9,1.9,0,0,1-.7-1.463,1.882,1.882,0,0,1,.281-.984,2.581,2.581,0,0,0,1.632.6.383.383,0,1,0,0-.765,2.011,2.011,0,0,1-1.913-2.027,1.9,1.9,0,0,1,.893-1.612.383.383,0,0,0,.128-.512,1.882,1.882,0,0,1-.256-.936,1.916,1.916,0,1,1,3.825,0,.383.383,0,0,0,.765,0A2.774,2.774,0,0,0,29.443,3.94a2.48,2.48,0,0,0-.382.03c0-.01,0-.02,0-.03a1.53,1.53,0,0,1,2.612-1.082.383.383,0,0,0,.541-.541,2.28,2.28,0,0,0-1.269-.645A1.933,1.933,0,0,1,32.5.765a2.024,2.024,0,0,1,1.913,2.027Zm6.5,6.795a2.582,2.582,0,0,0,1.632-.6,1.882,1.882,0,0,1,.281.984,1.9,1.9,0,0,1-.7,1.463.382.382,0,0,0-.127.383,1.887,1.887,0,0,1,.059.448,1.993,1.993,0,0,1-2.042,2.015l-.081-.01a.382.382,0,0,0-.39.219,2.3,2.3,0,0,1-2.077,1.334,2.386,2.386,0,0,1-2.3-2.41,2.3,2.3,0,0,1,2.3-2.3.383.383,0,1,0,0-.765,3.053,3.053,0,0,0-2.3,1.039V7.115a.766.766,0,0,1,.765-.765.383.383,0,1,0,0-.765,1.52,1.52,0,0,0-.765.206v-3A2.024,2.024,0,0,1,37.094.765a1.933,1.933,0,0,1,1.558.907,2.28,2.28,0,0,0-1.269.645.383.383,0,1,0,.541.541A1.53,1.53,0,0,1,40.536,3.94c0,.01,0,.02,0,.03a2.481,2.481,0,0,0-.382-.03,2.774,2.774,0,0,0-2.678,2.793.383.383,0,1,0,.765,0,1.916,1.916,0,1,1,3.825,0,1.882,1.882,0,0,1-.256.936.383.383,0,0,0,.128.512,1.9,1.9,0,0,1,.893,1.612,2.01,2.01,0,0,1-1.913,2.027.383.383,0,0,0,0,.765Z" transform="translate(-26)" fill="#a3a6b4" stroke="#a3a6b4" stroke-width="0.3"/>
      </g>
    </g>
    <g id="Group_1512" data-name="Group 1512" transform="translate(29.06 6.35)">
      <g id="Group_1511" data-name="Group 1511">
        <path id="Path_3531" data-name="Path 3531" d="M110.493,167.838a.383.383,0,0,0-.54-.03,1.916,1.916,0,0,1-3.188-1.426.383.383,0,0,0-.765,0,2.682,2.682,0,0,0,2.242,2.642,1.15,1.15,0,0,1-1.094.8.383.383,0,1,0,0,.765,1.916,1.916,0,0,0,1.878-1.553,2.673,2.673,0,0,0,1.437-.659A.383.383,0,0,0,110.493,167.838Z" transform="translate(-106 -166)" fill="#a3a6b4" stroke="#a3a6b4" stroke-width="0.3"/>
      </g>
    </g>
    <g id="Group_1514" data-name="Group 1514" transform="translate(29.06 14.881)">
      <g id="Group_1513" data-name="Group 1513">
        <path id="Path_3532" data-name="Path 3532" d="M106.383,389a.383.383,0,1,0,0,.765,2.024,2.024,0,0,1,1.913,2.027.383.383,0,1,0,.765,0A2.774,2.774,0,0,0,106.383,389Z" transform="translate(-106 -389)" fill="#a3a6b4" stroke="#a3a6b4" stroke-width="0.3"/>
      </g>
    </g>
    <g id="Group_1516" data-name="Group 1516" transform="translate(29.458 11.82)">
      <g id="Group_1515" data-name="Group 1515">
        <path id="Path_3533" data-name="Path 3533" d="M119.443,309a3.436,3.436,0,0,0-3,1.745.383.383,0,0,0,.666.377,2.672,2.672,0,0,1,2.33-1.357.383.383,0,1,0,0-.765Z" transform="translate(-116.398 -309)" fill="#a3a6b4" stroke="#a3a6b4" stroke-width="0.3"/>
      </g>
    </g>
    <g id="Group_1518" data-name="Group 1518" transform="translate(35.946 6.35)">
      <g id="Group_1517" data-name="Group 1517">
        <path id="Path_3534" data-name="Path 3534" d="M289.443,169.825a1.15,1.15,0,0,1-1.094-.8,2.682,2.682,0,0,0,2.242-2.642.383.383,0,1,0-.765,0,1.913,1.913,0,0,1-3.188,1.426.383.383,0,0,0-.51.57,2.673,2.673,0,0,0,1.437.659,1.916,1.916,0,0,0,1.878,1.553.383.383,0,0,0,0-.765Z" transform="translate(-286 -166)" fill="#a3a6b4" stroke="#a3a6b4" stroke-width="0.3"/>
      </g>
    </g>
    <g id="Group_1520" data-name="Group 1520" transform="translate(37.476 14.881)">
      <g id="Group_1519" data-name="Group 1519">
        <path id="Path_3535" data-name="Path 3535" d="M328.678,389A2.774,2.774,0,0,0,326,391.793a.383.383,0,0,0,.765,0,2.024,2.024,0,0,1,1.913-2.027.383.383,0,1,0,0-.765Z" transform="translate(-326 -389)" fill="#a3a6b4" stroke="#a3a6b4" stroke-width="0.3"/>
      </g>
    </g>
    <g id="Group_1522" data-name="Group 1522" transform="translate(36.711 11.82)">
      <g id="Group_1521" data-name="Group 1521">
        <path id="Path_3536" data-name="Path 3536" d="M309.378,310.745a3.435,3.435,0,0,0-3-1.745.383.383,0,1,0,0,.765,2.672,2.672,0,0,1,2.33,1.357.383.383,0,0,0,.666-.377Z" transform="translate(-306 -309)" fill="#a3a6b4" stroke="#a3a6b4" stroke-width="0.3"/>
      </g>
    </g>
  </g>
</svg>
