<svg xmlns="http://www.w3.org/2000/svg" width="21.894" height="21.893" viewBox="0 0 21.894 21.893">
  <g id="book" transform="translate(0 -0.004)">
    <path id="Path_3912" data-name="Path 3912" d="M5.838,65.828v-1.46A.365.365,0,0,0,5.473,64H.365A.365.365,0,0,0,0,64.369v1.46Zm0,0" transform="translate(0 -61.081)" fill="#aeaeae"/>
    <path id="Path_3913" data-name="Path 3913" d="M0,120v12.041H5.838V120Zm4.379,4.743H1.46a.365.365,0,0,1-.365-.365v-2.919a.365.365,0,0,1,.365-.365H4.379a.365.365,0,0,1,.365.365v2.919A.365.365,0,0,1,4.379,124.747Zm0,0" transform="translate(0 -114.527)" fill="#aeaeae"/>
    <path id="Path_3914" data-name="Path 3914" d="M0,432v1.824a.365.365,0,0,0,.365.365H5.473a.365.365,0,0,0,.365-.365V432Zm0,0" transform="translate(0 -412.296)" fill="#aeaeae"/>
    <path id="Path_3915" data-name="Path 3915" d="M0,400H5.838v.73H0Zm0,0" transform="translate(0 -381.756)" fill="#aeaeae"/>
    <path id="Path_3916" data-name="Path 3916" d="M144,400h4.743v.73H144Zm0,0" transform="translate(-137.432 -381.756)" fill="#aeaeae"/>
    <path id="Path_3917" data-name="Path 3917" d="M148.743,1.463V.369A.365.365,0,0,0,148.379,0h-4.014A.365.365,0,0,0,144,.369V1.463Zm0,0" transform="translate(-137.432)" fill="#aeaeae"/>
    <path id="Path_3918" data-name="Path 3918" d="M144,88h4.743v13.5H144Zm0,0" transform="translate(-137.432 -83.986)" fill="#aeaeae"/>
    <path id="Path_3919" data-name="Path 3919" d="M144,432v1.824a.365.365,0,0,0,.365.365h4.014a.365.365,0,0,0,.365-.365V432Zm0,0" transform="translate(-137.432 -412.296)" fill="#aeaeae"/>
    <path id="Path_3920" data-name="Path 3920" d="M144,48h4.743V49.1H144Zm0,0" transform="translate(-137.432 -45.811)" fill="#aeaeae"/>
    <path id="Path_3921" data-name="Path 3921" d="M263.809,131.187l.2.75,6.179-1.648-.2-.75Zm0,0" transform="translate(-251.777 -123.627)" fill="#aeaeae"/>
    <path id="Path_3922" data-name="Path 3922" d="M322.469,356.081l6.179-1.648-.391-1.5-6.18,1.648Zm0,0" transform="translate(-307.388 -336.832)" fill="#aeaeae"/>
    <path id="Path_3923" data-name="Path 3923" d="M280.4,169.48l-2.094-8.027-6.18,1.648,2.094,8.027Zm0,0" transform="translate(-259.717 -154.085)" fill="#aeaeae"/>
    <path id="Path_3924" data-name="Path 3924" d="M248.526,67.938l6.179-1.648-.524-2.01a.373.373,0,0,0-.449-.263l-5.473,1.46a.368.368,0,0,0-.259.445Zm0,0" transform="translate(-236.678 -61.084)" fill="#aeaeae"/>
    <path id="Path_3925" data-name="Path 3925" d="M340.876,401.3l-6.18,1.648.435,1.668a.366.366,0,0,0,.172.223.352.352,0,0,0,.182.051.425.425,0,0,0,.095-.011l5.473-1.46a.368.368,0,0,0,.259-.445Zm0,0" transform="translate(-319.43 -382.994)" fill="#aeaeae"/>
  </g>
</svg>
