<svg id="cup" xmlns="http://www.w3.org/2000/svg" xmlns:xlink="http://www.w3.org/1999/xlink" width="25.094" height="25.094" viewBox="0 0 25.094 25.094">
  <defs>
    <linearGradient id="linear-gradient" y1="0.5" x2="1" y2="0.5" gradientUnits="objectBoundingBox">
      <stop offset="0" stop-color="#8cc67e"/>
      <stop offset="1" stop-color="#39b59d"/>
    </linearGradient>
  </defs>
  <path id="Path_5700" data-name="Path 5700" d="M214.676,364.941h-.735v-2.205a.735.735,0,0,0-.735-.735h-1.47a.735.735,0,1,0,0,1.47h.735v1.47h-.735a.735.735,0,0,0,0,1.47h2.941a.735.735,0,1,0,0-1.47Z" transform="translate(-200.659 -344.258)" fill="url(#linear-gradient)"/>
  <path id="Path_5701" data-name="Path 5701" d="M24.359,307.881H17.693V303.47h.735a.735.735,0,0,0,0-1.47H6.666a.735.735,0,0,0,0,1.47H7.4v1.47H.735a.735.735,0,1,0,0,1.47h.784v5.146a.735.735,0,0,0,.735.735H22.839a.735.735,0,0,0,.735-.735v-2.206h.784a.735.735,0,0,0,0-1.47ZM2.99,306.411H7.4v4.411H2.99Zm5.881-2.941h7.352v7.352H8.871ZM22.1,310.822H17.693v-1.47H22.1Z" transform="translate(0 -287.199)" fill="url(#linear-gradient)"/>
  <path id="Path_5702" data-name="Path 5702" d="M93.5,5.849l-.955,1.909a.735.735,0,1,0,1.315.658l.943-1.886a5.154,5.154,0,0,0,3.545,2.24v3.091h-.735a.735.735,0,0,0,0,1.47h2.941a.735.735,0,1,0,0-1.47h-.735V8.769a5.158,5.158,0,0,0,3.727-2.532l.9.9a.735.735,0,0,0,1.04-1.04l-.356-.356a2.941,2.941,0,0,0-.9-5.74H93.941A2.941,2.941,0,0,0,93.5,5.849Zm12.2-2.908c0,1.356-1.518,1.468-1.523,1.47a5.169,5.169,0,0,0,.053-.735V1.47A1.472,1.472,0,0,1,105.7,2.941Zm-2.941.735a3.676,3.676,0,0,1-7.352,0V1.47h7.352ZM93.941,1.47V3.676a5.167,5.167,0,0,0,.053.735,1.492,1.492,0,0,1-1.523-1.47A1.472,1.472,0,0,1,93.941,1.47Z" transform="translate(-86.54)" fill="url(#linear-gradient)"/>
</svg>
