<svg id="eye" xmlns="http://www.w3.org/2000/svg" width="19.337" height="11.527" viewBox="0 0 19.337 11.527">
  <path id="Path_153" data-name="Path 153" d="M9.669,98.725c-3.695,0-7.045,2.021-9.517,5.3a.765.765,0,0,0,0,.914c2.472,3.287,5.823,5.308,9.517,5.308s7.045-2.021,9.517-5.3a.765.765,0,0,0,0-.914C16.713,100.746,13.363,98.725,9.669,98.725Zm.265,9.822a4.067,4.067,0,1,1,3.793-3.793A4.07,4.07,0,0,1,9.934,108.547Zm-.123-1.875a2.19,2.19,0,1,1,2.045-2.045A2.186,2.186,0,0,1,9.811,106.672Z" transform="translate(0 -98.725)" fill="#e8e8e8"/>
</svg>
