<svg id="Group_1562" data-name="Group 1562" xmlns="http://www.w3.org/2000/svg" width="23.395" height="22.237" viewBox="0 0 23.395 22.237">
  <g id="Group_1561" data-name="Group 1561" transform="translate(0 0)">
    <path id="Path_3933" data-name="Path 3933" d="M23,22.555l-10.5-9.564a1.194,1.194,0,0,0-1.616,0L.393,22.555A1.2,1.2,0,0,0,1.2,24.641H2.877v9.583a.688.688,0,0,0,.688.688H9.319a.688.688,0,0,0,.688-.688V28.406h3.381v5.818a.688.688,0,0,0,.688.688h5.753a.688.688,0,0,0,.688-.688V24.641h1.677A1.2,1.2,0,0,0,23,22.555Z" transform="translate(0 -12.675)" fill="#39b59d"/>
  </g>
</svg>
