<svg id="mail_2_" data-name="mail(2)" xmlns="http://www.w3.org/2000/svg" width="15.498" height="10.83" viewBox="0 0 15.498 10.83">
  <g id="Group_52" data-name="Group 52" transform="translate(0.714)">
    <g id="Group_51" data-name="Group 51" transform="translate(0 0)">
      <path id="Path_2594" data-name="Path 2594" d="M39.2,61H26.31a1.471,1.471,0,0,0-.589.125l7,6.367,1.57-1.371h0l5.5-5A1.472,1.472,0,0,0,39.2,61Z" transform="translate(-25.721 -61)" fill="#fff"/>
    </g>
  </g>
  <g id="Group_54" data-name="Group 54" transform="translate(10.672 0.714)">
    <g id="Group_53" data-name="Group 53" transform="translate(0 0)">
      <path id="Path_2595" data-name="Path 2595" d="M342.914,86.728l-4.7,4.7,4.7,4.7a1.236,1.236,0,0,0,.125-.535V87.263A1.235,1.235,0,0,0,342.914,86.728Z" transform="translate(-338.213 -86.728)" fill="#fff"/>
    </g>
  </g>
  <g id="Group_56" data-name="Group 56" transform="translate(0 0.714)">
    <g id="Group_55" data-name="Group 55" transform="translate(0 0)">
      <path id="Path_2596" data-name="Path 2596" d="M.125,86.721A1.235,1.235,0,0,0,0,87.256v8.331a1.235,1.235,0,0,0,.125.535l4.7-4.7Z" transform="translate(0 -86.721)" fill="#fff"/>
    </g>
  </g>
  <g id="Group_58" data-name="Group 58" transform="translate(0.714 6.004)">
    <g id="Group_57" data-name="Group 57" transform="translate(0 0)">
      <path id="Path_2597" data-name="Path 2597" d="M34.613,277.211l-1.57,1.372a.491.491,0,0,1-.648,0l-1.509-1.372-5.172,4.7a1.472,1.472,0,0,0,.589.125H39.2a1.471,1.471,0,0,0,.589-.125Z" transform="translate(-25.714 -277.211)" fill="#fff"/>
    </g>
  </g>
</svg>
