<svg xmlns="http://www.w3.org/2000/svg" width="18.046" height="20.532" viewBox="0 0 18.046 20.532">
  <g id="user" transform="translate(-31)">
    <g id="Group_1558" data-name="Group 1558" transform="translate(34.609)">
      <g id="Group_1557" data-name="Group 1557">
        <path id="Path_3931" data-name="Path 3931" d="M126.414,0a5.414,5.414,0,1,0,5.414,5.414A5.42,5.42,0,0,0,126.414,0Z" transform="translate(-121)" fill="#aeaeae"/>
      </g>
    </g>
    <g id="Group_1560" data-name="Group 1560" transform="translate(31 12.031)">
      <g id="Group_1559" data-name="Group 1559">
        <path id="Path_3932" data-name="Path 3932" d="M46.759,302.334A7.718,7.718,0,0,0,41.226,300H38.82a7.718,7.718,0,0,0-5.533,2.334A7.89,7.89,0,0,0,31,307.9a.6.6,0,0,0,.6.6H48.444a.6.6,0,0,0,.6-.6A7.89,7.89,0,0,0,46.759,302.334Z" transform="translate(-31 -300)" fill="#aeaeae"/>
      </g>
    </g>
  </g>
</svg>
